<mxfile host="app.diagrams.net" agent="Mozilla/5.0 (Windows NT 10.0; Win64; x64) AppleWebKit/537.36 (KHTML, like Gecko) Chrome/140.0.0.0 Safari/537.36" version="28.2.3">
  <diagram name="Trang-1" id="65wa6TNom7p3lzkgcdS8">
    <mxGraphModel dx="1042" dy="527" grid="1" gridSize="10" guides="1" tooltips="1" connect="1" arrows="1" fold="1" page="1" pageScale="1" pageWidth="827" pageHeight="1169" math="0" shadow="0">
      <root>
        <mxCell id="0" />
        <mxCell id="1" parent="0" />
        <mxCell id="Tit1Nx6JSzzMmGwbbuY4-5" value="" style="edgeStyle=orthogonalEdgeStyle;rounded=0;orthogonalLoop=1;jettySize=auto;html=1;" edge="1" parent="1" source="Tit1Nx6JSzzMmGwbbuY4-1" target="Tit1Nx6JSzzMmGwbbuY4-4">
          <mxGeometry relative="1" as="geometry" />
        </mxCell>
        <mxCell id="Tit1Nx6JSzzMmGwbbuY4-1" value="bắt đầu&amp;nbsp;" style="ellipse;whiteSpace=wrap;html=1;" vertex="1" parent="1">
          <mxGeometry x="370" y="70" width="120" height="80" as="geometry" />
        </mxCell>
        <mxCell id="Tit1Nx6JSzzMmGwbbuY4-7" value="" style="edgeStyle=orthogonalEdgeStyle;rounded=0;orthogonalLoop=1;jettySize=auto;html=1;" edge="1" parent="1" source="Tit1Nx6JSzzMmGwbbuY4-4" target="Tit1Nx6JSzzMmGwbbuY4-6">
          <mxGeometry relative="1" as="geometry" />
        </mxCell>
        <mxCell id="Tit1Nx6JSzzMmGwbbuY4-4" value="nhập vào 3 số a,b,c" style="shape=parallelogram;perimeter=parallelogramPerimeter;whiteSpace=wrap;html=1;fixedSize=1;" vertex="1" parent="1">
          <mxGeometry x="360" y="210" width="140" height="60" as="geometry" />
        </mxCell>
        <mxCell id="Tit1Nx6JSzzMmGwbbuY4-15" value="" style="edgeStyle=orthogonalEdgeStyle;rounded=0;orthogonalLoop=1;jettySize=auto;html=1;" edge="1" parent="1" source="Tit1Nx6JSzzMmGwbbuY4-6" target="Tit1Nx6JSzzMmGwbbuY4-14">
          <mxGeometry relative="1" as="geometry" />
        </mxCell>
        <mxCell id="Tit1Nx6JSzzMmGwbbuY4-34" value="N" style="edgeLabel;html=1;align=center;verticalAlign=middle;resizable=0;points=[];" vertex="1" connectable="0" parent="Tit1Nx6JSzzMmGwbbuY4-15">
          <mxGeometry x="-0.14" y="1" relative="1" as="geometry">
            <mxPoint as="offset" />
          </mxGeometry>
        </mxCell>
        <mxCell id="Tit1Nx6JSzzMmGwbbuY4-17" value="" style="edgeStyle=orthogonalEdgeStyle;rounded=0;orthogonalLoop=1;jettySize=auto;html=1;" edge="1" parent="1" source="Tit1Nx6JSzzMmGwbbuY4-6" target="Tit1Nx6JSzzMmGwbbuY4-8">
          <mxGeometry relative="1" as="geometry" />
        </mxCell>
        <mxCell id="Tit1Nx6JSzzMmGwbbuY4-18" value="Y" style="edgeLabel;html=1;align=center;verticalAlign=middle;resizable=0;points=[];" vertex="1" connectable="0" parent="Tit1Nx6JSzzMmGwbbuY4-17">
          <mxGeometry x="-0.22" y="1" relative="1" as="geometry">
            <mxPoint as="offset" />
          </mxGeometry>
        </mxCell>
        <mxCell id="Tit1Nx6JSzzMmGwbbuY4-6" value="a=0 ?" style="rhombus;whiteSpace=wrap;html=1;" vertex="1" parent="1">
          <mxGeometry x="390" y="340" width="80" height="80" as="geometry" />
        </mxCell>
        <mxCell id="Tit1Nx6JSzzMmGwbbuY4-11" value="" style="edgeStyle=orthogonalEdgeStyle;rounded=0;orthogonalLoop=1;jettySize=auto;html=1;" edge="1" parent="1" source="Tit1Nx6JSzzMmGwbbuY4-8">
          <mxGeometry relative="1" as="geometry">
            <mxPoint x="590" y="500" as="targetPoint" />
          </mxGeometry>
        </mxCell>
        <mxCell id="Tit1Nx6JSzzMmGwbbuY4-22" value="N" style="edgeLabel;html=1;align=center;verticalAlign=middle;resizable=0;points=[];" vertex="1" connectable="0" parent="Tit1Nx6JSzzMmGwbbuY4-11">
          <mxGeometry x="-0.185" y="-1" relative="1" as="geometry">
            <mxPoint as="offset" />
          </mxGeometry>
        </mxCell>
        <mxCell id="Tit1Nx6JSzzMmGwbbuY4-20" value="" style="edgeStyle=orthogonalEdgeStyle;rounded=0;orthogonalLoop=1;jettySize=auto;html=1;" edge="1" parent="1" source="Tit1Nx6JSzzMmGwbbuY4-8" target="Tit1Nx6JSzzMmGwbbuY4-26">
          <mxGeometry relative="1" as="geometry">
            <mxPoint x="700" y="380" as="targetPoint" />
          </mxGeometry>
        </mxCell>
        <mxCell id="Tit1Nx6JSzzMmGwbbuY4-21" value="Y" style="edgeLabel;html=1;align=center;verticalAlign=middle;resizable=0;points=[];" vertex="1" connectable="0" parent="Tit1Nx6JSzzMmGwbbuY4-20">
          <mxGeometry x="-0.1371" y="-1" relative="1" as="geometry">
            <mxPoint as="offset" />
          </mxGeometry>
        </mxCell>
        <mxCell id="Tit1Nx6JSzzMmGwbbuY4-8" value="b=0" style="rhombus;whiteSpace=wrap;html=1;" vertex="1" parent="1">
          <mxGeometry x="550" y="340" width="80" height="80" as="geometry" />
        </mxCell>
        <mxCell id="Tit1Nx6JSzzMmGwbbuY4-25" value="" style="edgeStyle=orthogonalEdgeStyle;rounded=0;orthogonalLoop=1;jettySize=auto;html=1;" edge="1" parent="1" source="Tit1Nx6JSzzMmGwbbuY4-12" target="Tit1Nx6JSzzMmGwbbuY4-8">
          <mxGeometry relative="1" as="geometry" />
        </mxCell>
        <mxCell id="Tit1Nx6JSzzMmGwbbuY4-12" value="ngiệm =-c/b" style="rhombus;whiteSpace=wrap;html=1;" vertex="1" parent="1">
          <mxGeometry x="550" y="500" width="80" height="80" as="geometry" />
        </mxCell>
        <mxCell id="Tit1Nx6JSzzMmGwbbuY4-24" value="" style="edgeStyle=orthogonalEdgeStyle;rounded=0;orthogonalLoop=1;jettySize=auto;html=1;" edge="1" parent="1" source="Tit1Nx6JSzzMmGwbbuY4-14" target="Tit1Nx6JSzzMmGwbbuY4-23">
          <mxGeometry relative="1" as="geometry" />
        </mxCell>
        <mxCell id="Tit1Nx6JSzzMmGwbbuY4-14" value="Tính Δ=b^2-4ac&amp;nbsp;" style="whiteSpace=wrap;html=1;" vertex="1" parent="1">
          <mxGeometry x="210" y="350" width="120" height="60" as="geometry" />
        </mxCell>
        <mxCell id="Tit1Nx6JSzzMmGwbbuY4-36" value="" style="edgeStyle=orthogonalEdgeStyle;rounded=0;orthogonalLoop=1;jettySize=auto;html=1;" edge="1" parent="1" source="Tit1Nx6JSzzMmGwbbuY4-23" target="Tit1Nx6JSzzMmGwbbuY4-35">
          <mxGeometry relative="1" as="geometry" />
        </mxCell>
        <mxCell id="Tit1Nx6JSzzMmGwbbuY4-45" value="Y" style="edgeLabel;html=1;align=center;verticalAlign=middle;resizable=0;points=[];" vertex="1" connectable="0" parent="Tit1Nx6JSzzMmGwbbuY4-36">
          <mxGeometry x="-0.2057" y="1" relative="1" as="geometry">
            <mxPoint as="offset" />
          </mxGeometry>
        </mxCell>
        <mxCell id="Tit1Nx6JSzzMmGwbbuY4-38" value="" style="edgeStyle=orthogonalEdgeStyle;rounded=0;orthogonalLoop=1;jettySize=auto;html=1;" edge="1" parent="1" source="Tit1Nx6JSzzMmGwbbuY4-23" target="Tit1Nx6JSzzMmGwbbuY4-37">
          <mxGeometry relative="1" as="geometry" />
        </mxCell>
        <mxCell id="Tit1Nx6JSzzMmGwbbuY4-48" value="N" style="edgeLabel;html=1;align=center;verticalAlign=middle;resizable=0;points=[];" vertex="1" connectable="0" parent="Tit1Nx6JSzzMmGwbbuY4-38">
          <mxGeometry x="-0.35" y="3" relative="1" as="geometry">
            <mxPoint as="offset" />
          </mxGeometry>
        </mxCell>
        <mxCell id="Tit1Nx6JSzzMmGwbbuY4-23" value="Δ&amp;gt;0&amp;nbsp;" style="rhombus;whiteSpace=wrap;html=1;" vertex="1" parent="1">
          <mxGeometry x="230" y="480" width="80" height="80" as="geometry" />
        </mxCell>
        <mxCell id="Tit1Nx6JSzzMmGwbbuY4-28" value="" style="edgeStyle=orthogonalEdgeStyle;rounded=0;orthogonalLoop=1;jettySize=auto;html=1;" edge="1" parent="1" source="Tit1Nx6JSzzMmGwbbuY4-26" target="Tit1Nx6JSzzMmGwbbuY4-27">
          <mxGeometry relative="1" as="geometry" />
        </mxCell>
        <mxCell id="Tit1Nx6JSzzMmGwbbuY4-31" value="Y" style="edgeLabel;html=1;align=center;verticalAlign=middle;resizable=0;points=[];" vertex="1" connectable="0" parent="Tit1Nx6JSzzMmGwbbuY4-28">
          <mxGeometry x="-0.0514" y="1" relative="1" as="geometry">
            <mxPoint as="offset" />
          </mxGeometry>
        </mxCell>
        <mxCell id="Tit1Nx6JSzzMmGwbbuY4-33" value="N" style="edgeLabel;html=1;align=center;verticalAlign=middle;resizable=0;points=[];" vertex="1" connectable="0" parent="Tit1Nx6JSzzMmGwbbuY4-28">
          <mxGeometry x="-0.0514" y="2" relative="1" as="geometry">
            <mxPoint as="offset" />
          </mxGeometry>
        </mxCell>
        <mxCell id="Tit1Nx6JSzzMmGwbbuY4-30" value="" style="edgeStyle=orthogonalEdgeStyle;rounded=0;orthogonalLoop=1;jettySize=auto;html=1;" edge="1" parent="1" source="Tit1Nx6JSzzMmGwbbuY4-26" target="Tit1Nx6JSzzMmGwbbuY4-29">
          <mxGeometry relative="1" as="geometry" />
        </mxCell>
        <mxCell id="Tit1Nx6JSzzMmGwbbuY4-32" value="Y" style="edgeLabel;html=1;align=center;verticalAlign=middle;resizable=0;points=[];" vertex="1" connectable="0" parent="Tit1Nx6JSzzMmGwbbuY4-30">
          <mxGeometry x="-0.12" y="-1" relative="1" as="geometry">
            <mxPoint as="offset" />
          </mxGeometry>
        </mxCell>
        <mxCell id="Tit1Nx6JSzzMmGwbbuY4-26" value="c=0" style="rhombus;whiteSpace=wrap;html=1;" vertex="1" parent="1">
          <mxGeometry x="720" y="340" width="80" height="80" as="geometry" />
        </mxCell>
        <mxCell id="Tit1Nx6JSzzMmGwbbuY4-27" value="vô nghiệm" style="shape=parallelogram;perimeter=parallelogramPerimeter;whiteSpace=wrap;html=1;fixedSize=1;" vertex="1" parent="1">
          <mxGeometry x="860" y="350" width="120" height="60" as="geometry" />
        </mxCell>
        <mxCell id="Tit1Nx6JSzzMmGwbbuY4-29" value="vô số ngiệm" style="shape=parallelogram;perimeter=parallelogramPerimeter;whiteSpace=wrap;html=1;fixedSize=1;" vertex="1" parent="1">
          <mxGeometry x="700" y="510" width="120" height="60" as="geometry" />
        </mxCell>
        <mxCell id="Tit1Nx6JSzzMmGwbbuY4-35" value="Hai nghiệm phân biệt&lt;div&gt;&lt;div&gt;x1 = (-b + √Δ) / (2a)&lt;/div&gt;&lt;div&gt;&lt;br&gt;&lt;/div&gt;&lt;div&gt;x2 = (-b - √Δ) / (2a)&lt;/div&gt;&lt;/div&gt;" style="shape=parallelogram;perimeter=parallelogramPerimeter;whiteSpace=wrap;html=1;fixedSize=1;" vertex="1" parent="1">
          <mxGeometry x="10" y="460" width="160" height="90" as="geometry" />
        </mxCell>
        <mxCell id="Tit1Nx6JSzzMmGwbbuY4-40" value="" style="edgeStyle=orthogonalEdgeStyle;rounded=0;orthogonalLoop=1;jettySize=auto;html=1;" edge="1" parent="1" source="Tit1Nx6JSzzMmGwbbuY4-37" target="Tit1Nx6JSzzMmGwbbuY4-39">
          <mxGeometry relative="1" as="geometry" />
        </mxCell>
        <mxCell id="Tit1Nx6JSzzMmGwbbuY4-46" value="Y" style="edgeLabel;html=1;align=center;verticalAlign=middle;resizable=0;points=[];" vertex="1" connectable="0" parent="Tit1Nx6JSzzMmGwbbuY4-40">
          <mxGeometry x="-0.0057" y="-2" relative="1" as="geometry">
            <mxPoint as="offset" />
          </mxGeometry>
        </mxCell>
        <mxCell id="Tit1Nx6JSzzMmGwbbuY4-42" value="" style="edgeStyle=orthogonalEdgeStyle;rounded=0;orthogonalLoop=1;jettySize=auto;html=1;" edge="1" parent="1" source="Tit1Nx6JSzzMmGwbbuY4-37" target="Tit1Nx6JSzzMmGwbbuY4-41">
          <mxGeometry relative="1" as="geometry" />
        </mxCell>
        <mxCell id="Tit1Nx6JSzzMmGwbbuY4-37" value="Δ&amp;lt;0&amp;nbsp;" style="rhombus;whiteSpace=wrap;html=1;" vertex="1" parent="1">
          <mxGeometry x="230" y="640" width="80" height="80" as="geometry" />
        </mxCell>
        <mxCell id="Tit1Nx6JSzzMmGwbbuY4-39" value="Vô nghiệm&amp;nbsp;" style="shape=parallelogram;perimeter=parallelogramPerimeter;whiteSpace=wrap;html=1;fixedSize=1;" vertex="1" parent="1">
          <mxGeometry x="50" y="650" width="120" height="60" as="geometry" />
        </mxCell>
        <mxCell id="Tit1Nx6JSzzMmGwbbuY4-44" value="" style="edgeStyle=orthogonalEdgeStyle;rounded=0;orthogonalLoop=1;jettySize=auto;html=1;" edge="1" parent="1" source="Tit1Nx6JSzzMmGwbbuY4-41" target="Tit1Nx6JSzzMmGwbbuY4-43">
          <mxGeometry relative="1" as="geometry" />
        </mxCell>
        <mxCell id="Tit1Nx6JSzzMmGwbbuY4-47" value="Y" style="edgeLabel;html=1;align=center;verticalAlign=middle;resizable=0;points=[];" vertex="1" connectable="0" parent="Tit1Nx6JSzzMmGwbbuY4-44">
          <mxGeometry x="-0.2629" y="-2" relative="1" as="geometry">
            <mxPoint as="offset" />
          </mxGeometry>
        </mxCell>
        <mxCell id="Tit1Nx6JSzzMmGwbbuY4-51" value="" style="edgeStyle=orthogonalEdgeStyle;rounded=0;orthogonalLoop=1;jettySize=auto;html=1;" edge="1" parent="1" source="Tit1Nx6JSzzMmGwbbuY4-41" target="Tit1Nx6JSzzMmGwbbuY4-50">
          <mxGeometry relative="1" as="geometry" />
        </mxCell>
        <mxCell id="Tit1Nx6JSzzMmGwbbuY4-41" value="Δ=0" style="rhombus;whiteSpace=wrap;html=1;" vertex="1" parent="1">
          <mxGeometry x="230" y="800" width="80" height="80" as="geometry" />
        </mxCell>
        <mxCell id="Tit1Nx6JSzzMmGwbbuY4-43" value="Nghiệm kép&lt;div&gt;x = -b / (2a)&lt;/div&gt;" style="shape=parallelogram;perimeter=parallelogramPerimeter;whiteSpace=wrap;html=1;fixedSize=1;" vertex="1" parent="1">
          <mxGeometry x="50" y="810" width="120" height="60" as="geometry" />
        </mxCell>
        <mxCell id="Tit1Nx6JSzzMmGwbbuY4-49" value="N" style="text;html=1;align=center;verticalAlign=middle;resizable=0;points=[];autosize=1;strokeColor=none;fillColor=none;" vertex="1" parent="1">
          <mxGeometry x="245" y="748" width="30" height="30" as="geometry" />
        </mxCell>
        <mxCell id="Tit1Nx6JSzzMmGwbbuY4-53" value="" style="edgeStyle=orthogonalEdgeStyle;rounded=0;orthogonalLoop=1;jettySize=auto;html=1;" edge="1" parent="1" source="Tit1Nx6JSzzMmGwbbuY4-50" target="Tit1Nx6JSzzMmGwbbuY4-52">
          <mxGeometry relative="1" as="geometry" />
        </mxCell>
        <mxCell id="Tit1Nx6JSzzMmGwbbuY4-50" value="&amp;nbsp; &amp;nbsp; &amp;nbsp;In nghiệm ra màn hình" style="shape=parallelogram;perimeter=parallelogramPerimeter;whiteSpace=wrap;html=1;fixedSize=1;" vertex="1" parent="1">
          <mxGeometry x="200" y="960" width="130" height="70" as="geometry" />
        </mxCell>
        <mxCell id="Tit1Nx6JSzzMmGwbbuY4-52" value="Kết thúc" style="ellipse;whiteSpace=wrap;html=1;" vertex="1" parent="1">
          <mxGeometry x="420" y="950" width="120" height="80" as="geometry" />
        </mxCell>
      </root>
    </mxGraphModel>
  </diagram>
</mxfile>
